<svg width="420" height="420" viewBox="0 0 420 420" fill="none" xmlns="http://www.w3.org/2000/svg">
<defs><linearGradient id="g" x1="70" y1="40" x2="350" y2="390" gradientUnits="userSpaceOnUse"><stop stop-color="#FF4967"/><stop offset="0.45" stop-color="#C10C2E"/><stop offset="1" stop-color="#4B0717"/></linearGradient><filter id="s" x="20" y="5" width="380" height="410" filterUnits="userSpaceOnUse"><feDropShadow dy="18" stdDeviation="18" flood-color="#000" flood-opacity="0.55"/></filter></defs>
<rect width="420" height="420" rx="48" fill="#090D15"/><circle cx="210" cy="204" r="160" fill="#FF1538" fill-opacity="0.08"/><g filter="url(#s)"><path d="M136 76L191 48C202 76 218 76 229 48L284 76L360 155L306 211L277 178L288 366H132L143 178L114 211L60 155L136 76Z" fill="url(#g)"/><path d="M191 48C196 91 224 91 229 48" stroke="#FFB4C0" stroke-opacity="0.72" stroke-width="5"/><path d="M143 178C186 195 234 195 277 178" stroke="#65091D" stroke-opacity="0.7" stroke-width="7"/></g><rect x="18" y="18" width="384" height="384" rx="36" stroke="white" stroke-opacity="0.1"/></svg>
